<svg width="1813" height="200" viewBox="0 0 1813 200" fill="none" xmlns="http://www.w3.org/2000/svg">
<path d="M60.4194 148.295C62.7662 148.295 64.8997 147.888 66.8198 147.074C68.7825 146.192 70.5533 144.97 72.1321 143.41L68.4199 147.786L85.0608 109.211H87.5569L81.7966 151.756C77.231 153.452 72.7508 154.707 68.3559 155.522C63.9609 156.336 59.054 156.743 53.635 156.743C45.2719 156.743 37.7835 155.115 31.1698 151.858C24.556 148.533 18.9237 143.613 14.2728 137.099C9.62188 130.585 6.08034 122.545 3.64821 112.977C1.21607 103.342 0 92.2137 0 79.5929C0 64.8685 2.26146 51.9084 6.78438 40.7125C11.3073 29.5165 17.6223 20.7973 25.7295 14.5547C33.8792 8.24428 43.3944 5.08907 54.2751 5.08907C58.1579 5.08907 61.5288 5.36048 64.3876 5.90332C67.2891 6.44614 70.7027 7.3961 74.6282 8.75319L67.7158 12.0102L78.3404 0H79.3645L86.7249 58.4224L84.3568 59.7456L66.7558 17.8117L73.0281 30.3308C69.3159 23.6132 66.0091 19.2027 63.1076 17.0992C60.2061 14.9958 57.1766 13.944 54.019 13.944C50.8615 13.944 48.0027 14.9618 45.4426 16.9975C42.8824 18.9652 40.685 22.1883 38.8502 26.6667C37.0581 31.145 35.6713 37.0823 34.69 44.4784C33.7086 51.8066 33.2179 60.8312 33.2179 71.5522C33.2179 82.1374 33.9219 92.078 35.33 101.374C36.7381 110.602 38.6795 118.745 41.1543 125.802C43.6718 132.791 46.5733 138.287 49.8588 142.29C53.1443 146.293 56.6645 148.295 60.4194 148.295Z" fill="white"/>
<path d="M151.146 47.1247C153.834 47.1247 155.946 48.4818 157.482 51.1959C159.018 53.9101 159.786 57.4385 159.786 61.7812C159.786 67.3452 158.613 72.1968 156.266 76.3359C153.919 80.4071 151.103 82.4428 147.817 82.4428C145.513 82.4428 143.593 82.1713 142.057 81.6285C140.564 81.0178 139.134 80.4411 137.769 79.8982C136.446 79.2875 134.867 78.9822 133.032 78.9822C131.752 78.9822 130.622 79.1518 129.64 79.4911C128.702 79.7625 127.827 80.3053 127.016 81.1196C126.248 81.866 125.459 82.9517 124.648 84.3766L124.584 79.4911C128.424 72.3664 131.646 66.6667 134.249 62.3919C136.851 58.1171 139.091 54.894 140.969 52.7227C142.889 50.4835 144.638 48.9907 146.217 48.2443C147.796 47.4979 149.439 47.1247 151.146 47.1247ZM127.656 146.768L134.441 150.331V153.69H94.1183V150.331L99.6226 146.768V78.5751C99.0679 77.4215 98.5345 76.3359 98.0225 75.3181C97.5532 74.3003 96.8918 72.9432 96.0384 71.2468C95.2277 69.5505 94.033 67.0738 92.4542 63.8168V60.458L125.928 46.4122H127.656V146.768Z" fill="white"/>
<path d="M197.394 148.702C199.314 148.702 200.765 147.311 201.746 144.529C202.77 141.747 203.453 137.201 203.794 130.891C204.136 124.58 204.306 116.2 204.306 105.751C204.306 94.3511 204.157 84.8855 203.858 77.3537C203.56 69.754 202.877 64.0543 201.81 60.2545C200.786 56.4546 199.186 54.5547 197.01 54.5547C195.09 54.5547 193.639 55.9457 192.658 58.7277C191.676 61.5098 190.994 66.056 190.61 72.3664C190.268 78.609 190.098 86.9551 190.098 97.4046C190.098 108.804 190.247 118.304 190.546 125.903C190.844 133.503 191.506 139.203 192.53 143.003C193.597 146.802 195.218 148.702 197.394 148.702ZM196.242 156.743C189.159 156.743 182.993 154.436 177.745 149.822C172.539 145.208 168.486 138.83 165.584 130.687C162.725 122.477 161.296 112.977 161.296 102.188C161.296 91.1281 162.875 81.4249 166.032 73.0789C169.19 64.7328 173.542 58.2188 179.089 53.5369C184.679 48.7871 191.036 46.4122 198.162 46.4122C205.373 46.4122 211.582 48.7193 216.787 53.3333C222.036 57.8796 226.068 64.2579 228.884 72.4682C231.743 80.6785 233.172 90.1781 233.172 100.967C233.172 112.027 231.551 121.764 228.308 130.178C225.108 138.524 220.734 145.038 215.187 149.72C209.64 154.402 203.325 156.743 196.242 156.743Z" fill="white"/>
<path d="M269.132 46.4122C273.1 46.4122 276.535 46.8193 279.437 47.6336C282.338 48.38 285.282 49.5335 288.269 51.0942L291.277 79.7964H289.229L277.517 52.2137L283.789 60.9669C281.4 57.9813 279.074 55.8779 276.813 54.6565C274.594 53.3673 272.375 52.7227 270.156 52.7227C266.401 52.7227 263.606 53.6387 261.772 55.4707C259.937 57.3028 259.02 60.1527 259.02 64.0204C259.02 66.2595 259.404 68.2612 260.172 70.0255C260.982 71.7897 262.561 73.5199 264.908 75.2163C267.255 76.8448 270.818 78.6768 275.596 80.7125C279.138 82.2053 282.146 84.1052 284.621 86.4122C287.096 88.6514 289.08 91.2977 290.573 94.3512C292.109 97.4046 293.219 100.831 293.902 104.631C294.627 108.363 294.99 112.502 294.99 117.048C294.99 124.784 293.667 131.637 291.021 137.608C288.376 143.579 284.664 148.261 279.885 151.654C275.106 155.047 269.473 156.743 262.988 156.743C258.166 156.743 254.113 156.234 250.827 155.216C247.542 154.198 244.853 152.909 242.763 151.349L239.37 118.372H241.803L254.795 150.941L250.507 144.835C251.744 146.124 253.067 147.21 254.475 148.092C255.883 148.906 257.334 149.517 258.828 149.924C260.364 150.331 261.857 150.534 263.308 150.534C267.105 150.534 270.114 149.211 272.332 146.565C274.594 143.919 275.725 139.847 275.725 134.351C275.725 132.18 275.447 130.246 274.892 128.55C274.38 126.785 273.506 125.157 272.268 123.664C271.031 122.171 269.345 120.746 267.212 119.389C265.121 118.032 262.476 116.709 259.276 115.42C255.051 113.723 251.51 111.552 248.651 108.906C245.792 106.192 243.637 102.833 242.187 98.8295C240.779 94.8261 240.075 90.0424 240.075 84.4784C240.075 76.9466 241.291 70.3308 243.723 64.631C246.155 58.9313 249.547 54.4869 253.899 51.2977C258.294 48.0407 263.372 46.4122 269.132 46.4122Z" fill="white"/>
<path d="M330.261 46.4122C334.229 46.4122 337.664 46.8193 340.565 47.6336C343.467 48.38 346.411 49.5335 349.398 51.0942L352.406 79.7964H350.358L338.645 52.2137L344.917 60.9669C342.528 57.9813 340.202 55.8779 337.941 54.6565C335.722 53.3673 333.503 52.7227 331.285 52.7227C327.53 52.7227 324.735 53.6387 322.9 55.4707C321.065 57.3028 320.148 60.1527 320.148 64.0204C320.148 66.2595 320.532 68.2612 321.3 70.0255C322.111 71.7897 323.69 73.5199 326.036 75.2163C328.383 76.8448 331.946 78.6768 336.725 80.7125C340.266 82.2053 343.275 84.1052 345.749 86.4122C348.224 88.6514 350.208 91.2977 351.702 94.3512C353.238 97.4046 354.347 100.831 355.03 104.631C355.755 108.363 356.118 112.502 356.118 117.048C356.118 124.784 354.795 131.637 352.15 137.608C349.504 143.579 345.792 148.261 341.013 151.654C336.234 155.047 330.602 156.743 324.116 156.743C319.295 156.743 315.241 156.234 311.956 155.216C308.67 154.198 305.982 152.909 303.891 151.349L300.499 118.372H302.931L315.924 150.941L311.636 144.835C312.873 146.124 314.196 147.21 315.604 148.092C317.012 148.906 318.463 149.517 319.956 149.924C321.492 150.331 322.986 150.534 324.436 150.534C328.234 150.534 331.242 149.211 333.461 146.565C335.722 143.919 336.853 139.847 336.853 134.351C336.853 132.18 336.576 130.246 336.021 128.55C335.509 126.785 334.634 125.157 333.397 123.664C332.159 122.171 330.474 120.746 328.34 119.389C326.25 118.032 323.604 116.709 320.404 115.42C316.18 113.723 312.638 111.552 309.779 108.906C306.921 106.192 304.766 102.833 303.315 98.8295C301.907 94.8261 301.203 90.0424 301.203 84.4784C301.203 76.9466 302.419 70.3308 304.851 64.631C307.283 58.9313 310.675 54.4869 315.028 51.2977C319.423 48.0407 324.5 46.4122 330.261 46.4122Z" fill="white"/>
<path d="M449.941 148.295C452.288 148.295 454.422 147.888 456.342 147.074C458.304 146.192 460.075 144.97 461.654 143.41L457.942 147.786L474.583 109.211H477.079L471.319 151.756C466.753 153.452 462.273 154.707 457.878 155.522C453.483 156.336 448.576 156.743 443.157 156.743C434.794 156.743 427.305 155.115 420.692 151.858C414.078 148.533 408.446 143.613 403.795 137.099C399.144 130.585 395.602 122.545 393.17 112.977C390.738 103.342 389.522 92.2137 389.522 79.5929C389.522 64.8685 391.783 51.9084 396.306 40.7125C400.829 29.5165 407.144 20.7973 415.251 14.5547C423.401 8.24428 432.916 5.08907 443.797 5.08907C447.68 5.08907 451.051 5.36048 453.91 5.90332C456.811 6.44614 460.225 7.3961 464.15 8.75319L457.238 12.0102L467.862 0H468.886L476.247 58.4224L473.879 59.7456L456.278 17.8117L462.55 30.3308C458.838 23.6132 455.531 19.2027 452.629 17.0992C449.728 14.9958 446.698 13.944 443.541 13.944C440.383 13.944 437.525 14.9618 434.964 16.9975C432.404 18.9652 430.207 22.1883 428.372 26.6667C426.58 31.145 425.193 37.0823 424.212 44.4784C423.23 51.8066 422.74 60.8312 422.74 71.5522C422.74 82.1374 423.444 92.078 424.852 101.374C426.26 110.602 428.201 118.745 430.676 125.802C433.194 132.791 436.095 138.287 439.381 142.29C442.666 146.293 446.186 148.295 449.941 148.295Z" fill="white"/>
<path d="M519.162 148.702C521.082 148.702 522.533 147.311 523.514 144.529C524.538 141.747 525.221 137.201 525.563 130.891C525.904 124.58 526.075 116.2 526.075 105.751C526.075 94.3511 525.925 84.8855 525.627 77.3537C525.328 69.754 524.645 64.0543 523.578 60.2545C522.554 56.4546 520.954 54.5547 518.778 54.5547C516.858 54.5547 515.407 55.9457 514.426 58.7277C513.445 61.5098 512.762 66.056 512.378 72.3664C512.036 78.609 511.866 86.9551 511.866 97.4046C511.866 108.804 512.015 118.304 512.314 125.903C512.612 133.503 513.274 139.203 514.298 143.003C515.365 146.802 516.986 148.702 519.162 148.702ZM518.01 156.743C510.927 156.743 504.761 154.436 499.513 149.822C494.307 145.208 490.254 138.83 487.352 130.687C484.494 122.477 483.064 112.977 483.064 102.188C483.064 91.1281 484.643 81.4249 487.8 73.0789C490.958 64.7328 495.31 58.2188 500.857 53.5369C506.447 48.7871 512.805 46.4122 519.93 46.4122C527.141 46.4122 533.35 48.7193 538.555 53.3333C543.804 57.8796 547.836 64.2579 550.652 72.4682C553.511 80.6785 554.94 90.1781 554.94 100.967C554.94 112.027 553.319 121.764 550.076 130.178C546.876 138.524 542.502 145.038 536.955 149.72C531.408 154.402 525.093 156.743 518.01 156.743Z" fill="white"/>
<path d="M593.268 118.066C593.268 120.848 593.503 123.053 593.972 124.682C594.442 126.243 595.124 127.362 596.021 128.041C596.959 128.651 598.133 128.957 599.541 128.957C600.778 128.957 602.058 128.685 603.381 128.142C604.704 127.6 606.282 126.65 608.117 125.293V127.939C605.045 134.182 602.421 139.169 600.245 142.901C598.111 146.633 596.149 149.415 594.356 151.247C592.564 153.079 590.73 154.266 588.852 154.809C586.975 155.42 584.799 155.725 582.324 155.725C576.905 155.725 572.702 153.282 569.715 148.397C566.728 143.511 565.235 136.726 565.235 128.041V61.9847L558.514 54.3511V50.9924L593.588 47.9389L593.268 59.6438V118.066ZM607.157 158.066L605.301 138.321V61.6794L599.221 54.3511V50.9924L634.359 47.9389L633.335 59.9491V134.962C633.719 135.369 634.252 135.98 634.935 136.794C635.66 137.54 636.45 138.388 637.303 139.338C638.199 140.221 639.074 141.137 639.927 142.087C640.78 142.969 641.548 143.783 642.231 144.529V147.684L609.013 158.066H607.157Z" fill="white"/>
<path d="M679.312 147.074L684.112 150.331V153.69H645.774V150.331L651.279 146.768V78.5751C650.553 77.0144 649.508 74.8431 648.142 72.0611C646.82 69.2791 645.476 66.531 644.11 63.8168V60.458L677.584 46.4122H679.312V147.074ZM688.913 150.331L693.713 147.074V86.7176C693.713 83.4606 693.436 80.95 692.881 79.1858C692.369 77.3537 691.58 76.0645 690.513 75.3181C689.446 74.5717 688.081 74.1985 686.417 74.1985C685.009 74.1985 683.536 74.5038 682 75.1145C680.507 75.7252 678.672 76.8448 676.496 78.4733V76.743C679.782 70.0933 682.576 64.8346 684.881 60.9669C687.185 57.0314 689.275 54.1137 691.153 52.2137C693.03 50.246 694.95 48.9567 696.913 48.3461C698.876 47.7354 701.137 47.43 703.698 47.43C709.415 47.43 713.853 50.0085 717.01 55.1654C720.168 60.3223 721.747 67.4809 721.747 76.6412V146.768L727.187 150.331V153.69H688.913V150.331Z" fill="white"/>
<path d="M767.103 120C767.103 124.207 767.893 127.328 769.471 129.364C771.093 131.4 773.696 132.417 777.28 132.417C779.285 132.417 781.419 132.214 783.68 131.807C785.942 131.399 788.608 130.619 791.681 129.466V134.962C786.902 140.729 782.741 145.208 779.2 148.397C775.701 151.518 772.501 153.69 769.599 154.911C766.698 156.132 763.796 156.743 760.895 156.743C756.244 156.743 752.297 155.522 749.054 153.079C745.854 150.568 743.4 146.802 741.694 141.781C740.03 136.76 739.198 130.45 739.198 122.85V72.8753L728.317 57.9135V54.8601C728.829 54.3851 730.066 53.3333 732.029 51.7048C733.992 50.0763 736.381 48.0746 739.198 45.6997C742.014 43.257 745.001 40.7125 748.158 38.0662C751.316 35.352 754.409 32.7057 757.439 30.1272C760.511 27.4809 763.22 25.1739 765.567 23.2061H767.103V120ZM756.031 67.888V49.4657H789.12L787.648 67.888H756.031Z" fill="white"/>
<path d="M850.685 47.1247C853.373 47.1247 855.485 48.4818 857.021 51.1959C858.557 53.9101 859.325 57.4385 859.325 61.7812C859.325 67.3452 858.152 72.1968 855.805 76.3359C853.458 80.4071 850.642 82.4428 847.357 82.4428C845.053 82.4428 843.132 82.1713 841.596 81.6285C840.103 81.0178 838.674 80.4411 837.308 79.8982C835.985 79.2875 834.407 78.9822 832.572 78.9822C831.292 78.9822 830.161 79.1518 829.18 79.4911C828.241 79.7625 827.366 80.3053 826.555 81.1196C825.787 81.866 824.998 82.9517 824.187 84.3766L824.123 79.4911C827.964 72.3664 831.185 66.6667 833.788 62.3919C836.391 58.1171 838.631 54.894 840.508 52.7227C842.428 50.4835 844.178 48.9907 845.757 48.2443C847.335 47.4979 848.978 47.1247 850.685 47.1247ZM827.196 146.768L833.98 150.331V153.69H793.658V150.331L799.162 146.768V78.5751C798.607 77.4215 798.074 76.3359 797.562 75.3181C797.093 74.3003 796.431 72.9432 795.578 71.2468C794.767 69.5505 793.572 67.0738 791.994 63.8168V60.458L825.467 46.4122H827.196V146.768Z" fill="white"/>
<path d="M917.694 119.491L904.765 167.125L865.595 56.9975L859.578 52.5191V49.4657H903.741V52.8244L897.021 55.7761L917.694 119.491ZM884.22 200C880.849 200 878.075 198.507 875.899 195.522C873.723 192.536 872.635 188.193 872.635 182.494C872.635 180.051 872.891 177.846 873.403 175.878C873.915 173.978 874.534 172.451 875.259 171.298C876.027 170.212 876.731 169.669 877.371 169.669C877.542 169.669 878.118 170.008 879.099 170.687C880.124 171.366 881.468 172.044 883.132 172.723C884.796 173.469 886.673 173.842 888.764 173.842C891.495 173.842 893.799 173.537 895.676 172.926C897.554 172.316 899.09 171.332 900.285 169.975C901.522 168.685 902.546 166.921 903.357 164.682L905.341 159.186L914.237 126.412L931.774 55.369L925.054 52.8244V49.4657H942.911V52.8244L936.831 55.5725L910.909 156.031C908.05 167.226 905.277 176.014 902.589 182.392C899.901 188.77 897.085 193.282 894.14 195.929C891.196 198.643 887.889 200 884.22 200Z" fill="white"/>
<path d="M1029.22 148.295C1031.57 148.295 1033.7 147.888 1035.62 147.074C1037.59 146.192 1039.36 144.97 1040.94 143.41L1037.22 147.786L1053.87 109.211H1056.36L1050.6 151.756C1046.04 153.452 1041.56 154.707 1037.16 155.522C1032.77 156.336 1027.86 156.743 1022.44 156.743C1014.08 156.743 1006.59 155.115 999.974 151.858C993.361 148.533 987.728 143.613 983.077 137.099C978.426 130.585 974.885 122.545 972.453 112.977C970.021 103.342 968.805 92.2137 968.805 79.5929C968.805 64.8685 971.066 51.9084 975.589 40.7125C980.112 29.5165 986.427 20.7973 994.534 14.5547C1002.68 8.24428 1012.2 5.08907 1023.08 5.08907C1026.96 5.08907 1030.33 5.36048 1033.19 5.90332C1036.09 6.44614 1039.51 7.3961 1043.43 8.75319L1036.52 12.0102L1047.14 0H1048.17L1055.53 58.4224L1053.16 59.7456L1035.56 17.8117L1041.83 30.3308C1038.12 23.6132 1034.81 19.2027 1031.91 17.0992C1029.01 14.9958 1025.98 13.944 1022.82 13.944C1019.67 13.944 1016.81 14.9618 1014.25 16.9975C1011.69 18.9652 1009.49 22.1883 1007.65 26.6667C1005.86 31.145 1004.48 37.0823 1003.49 44.4784C1002.51 51.8066 1002.02 60.8312 1002.02 71.5522C1002.02 82.1374 1002.73 92.078 1004.13 101.374C1005.54 110.602 1007.48 118.745 1009.96 125.802C1012.48 132.791 1015.38 138.287 1018.66 142.29C1021.95 146.293 1025.47 148.295 1029.22 148.295Z" fill="white"/>
<path d="M1098.44 148.702C1100.36 148.702 1101.82 147.311 1102.8 144.529C1103.82 141.747 1104.5 137.201 1104.85 130.891C1105.19 124.58 1105.36 116.2 1105.36 105.751C1105.36 94.3511 1105.21 84.8855 1104.91 77.3537C1104.61 69.754 1103.93 64.0543 1102.86 60.2545C1101.84 56.4546 1100.24 54.5547 1098.06 54.5547C1096.14 54.5547 1094.69 55.9457 1093.71 58.7277C1092.73 61.5098 1092.04 66.056 1091.66 72.3664C1091.32 78.609 1091.15 86.9551 1091.15 97.4046C1091.15 108.804 1091.3 118.304 1091.6 125.903C1091.9 133.503 1092.56 139.203 1093.58 143.003C1094.65 146.802 1096.27 148.702 1098.44 148.702ZM1097.29 156.743C1090.21 156.743 1084.04 154.436 1078.8 149.822C1073.59 145.208 1069.54 138.83 1066.63 130.687C1063.78 122.477 1062.35 112.977 1062.35 102.188C1062.35 91.1281 1063.93 81.4249 1067.08 73.0789C1070.24 64.7328 1074.59 58.2188 1080.14 53.5369C1085.73 48.7871 1092.09 46.4122 1099.21 46.4122C1106.42 46.4122 1112.63 48.7193 1117.84 53.3333C1123.09 57.8796 1127.12 64.2579 1129.93 72.4682C1132.79 80.6785 1134.22 90.1781 1134.22 100.967C1134.22 112.027 1132.6 121.764 1129.36 130.178C1126.16 138.524 1121.78 145.038 1116.24 149.72C1110.69 154.402 1104.38 156.743 1097.29 156.743Z" fill="white"/>
<path d="M1174.22 147.074L1179.02 150.331V153.69H1140.68V150.331L1146.18 146.768V78.5751C1145.46 77.0144 1144.41 74.8431 1143.05 72.0611C1141.72 69.2791 1140.38 66.531 1139.01 63.8168V60.458L1172.49 46.4122H1174.22V147.074ZM1183.82 150.331L1188.62 147.074V86.7176C1188.62 83.4606 1188.34 80.95 1187.78 79.1858C1187.27 77.3537 1186.48 76.0645 1185.42 75.3181C1184.35 74.5717 1182.98 74.1985 1181.32 74.1985C1179.91 74.1985 1178.44 74.5038 1176.9 75.1145C1175.41 75.7252 1173.58 76.8448 1171.4 78.4733V76.743C1174.68 70.0933 1177.48 64.8346 1179.78 60.9669C1182.09 57.0314 1184.18 54.1137 1186.06 52.2137C1187.93 50.246 1189.85 48.9567 1191.82 48.3461C1193.78 47.7354 1196.04 47.43 1198.6 47.43C1204.32 47.43 1208.76 50.0085 1211.91 55.1654C1215.07 60.3223 1216.65 67.4809 1216.65 76.6412V146.768L1222.09 150.331V153.69H1183.82V150.331Z" fill="white"/>
<path d="M1261.1 147.074L1265.9 150.331V153.69H1227.56V150.331L1233.06 146.768V78.5751C1232.34 77.0144 1231.29 74.8431 1229.93 72.0611C1228.6 69.2791 1227.26 66.531 1225.89 63.8168V60.458L1259.37 46.4122H1261.1V147.074ZM1270.7 150.331L1275.5 147.074V86.7176C1275.5 83.4606 1275.22 80.95 1274.66 79.1858C1274.15 77.3537 1273.36 76.0645 1272.3 75.3181C1271.23 74.5717 1269.86 74.1985 1268.2 74.1985C1266.79 74.1985 1265.32 74.5038 1263.78 75.1145C1262.29 75.7252 1260.45 76.8448 1258.28 78.4733V76.743C1261.56 70.0933 1264.36 64.8346 1266.66 60.9669C1268.97 57.0314 1271.06 54.1137 1272.94 52.2137C1274.81 50.246 1276.73 48.9567 1278.7 48.3461C1280.66 47.7354 1282.92 47.43 1285.48 47.43C1291.2 47.43 1295.64 50.0085 1298.79 55.1654C1301.95 60.3223 1303.53 67.4809 1303.53 76.6412V146.768L1308.97 150.331V153.69H1270.7V150.331Z" fill="white"/>
<path d="M1349.32 46.4122C1355.25 46.4122 1360.24 48.2104 1364.3 51.8066C1368.35 55.4029 1371.49 60.5598 1373.7 67.2774C1375.97 73.9949 1377.31 82.0017 1377.74 91.2977H1333.83V82.0356H1366.6L1353.67 87.6336C1353.5 78.7447 1353.16 71.9254 1352.65 67.1756C1352.18 62.4258 1351.47 59.1349 1350.53 57.3028C1349.64 55.4707 1348.47 54.5547 1347.01 54.5547C1345.44 54.5547 1344.09 55.369 1342.98 56.9975C1341.92 58.626 1341.11 61.7812 1340.55 66.4631C1340.04 71.145 1339.78 78.1001 1339.78 87.3283C1339.78 97.3707 1340.49 105.411 1341.89 111.45C1343.3 117.489 1345.41 121.9 1348.23 124.682C1351.05 127.396 1354.57 128.753 1358.79 128.753C1361.1 128.753 1363.19 128.38 1365.06 127.634C1366.94 126.887 1368.82 125.598 1370.7 123.766C1372.57 121.934 1374.6 119.389 1376.78 116.132L1378.63 118.779C1375.43 128.278 1372.23 135.81 1369.03 141.374C1365.83 146.87 1362.46 150.806 1358.92 153.181C1355.42 155.556 1351.54 156.743 1347.27 156.743C1340.49 156.743 1334.6 154.64 1329.61 150.433C1324.61 146.158 1320.75 140.051 1318.02 132.112C1315.29 124.173 1313.92 114.741 1313.92 103.817C1313.92 93.6387 1315.25 84.207 1317.89 75.5216C1320.54 66.7685 1324.49 59.7456 1329.73 54.4529C1334.98 49.0925 1341.51 46.4122 1349.32 46.4122Z" fill="white"/>
<path d="M1422.08 46.4122C1428.31 46.4122 1433.22 47.4979 1436.8 49.6692C1440.43 51.7727 1443.01 54.3851 1444.55 57.5064C1446.09 60.6277 1446.85 63.7489 1446.85 66.8702C1446.85 69.6523 1446.38 72.095 1445.45 74.1985C1444.55 76.302 1443.4 77.9644 1441.99 79.1858C1440.62 80.3393 1439.22 80.916 1437.76 80.916C1437.25 80.916 1436.46 80 1435.4 78.1679C1434.33 76.3359 1433.07 74.0967 1431.62 71.4504C1430.21 68.7362 1428.68 66.056 1427.01 63.4097C1425.35 60.7634 1423.66 58.5242 1421.96 56.6921C1420.25 54.8601 1418.61 53.944 1417.03 53.944C1415.49 53.944 1414.13 54.7583 1412.93 56.3868C1411.78 58.0153 1410.88 60.933 1410.24 65.14C1409.6 69.2791 1409.28 75.1824 1409.28 82.8499C1409.28 94.1815 1409.99 103.206 1411.4 109.924C1412.85 116.641 1414.94 121.459 1417.67 124.377C1420.44 127.294 1423.77 128.753 1427.65 128.753C1431.32 128.753 1434.42 128.007 1436.93 126.514C1439.49 124.953 1442.39 121.832 1445.64 117.15L1447.49 119.796C1444.38 129.092 1441.26 136.455 1438.15 141.883C1435.03 147.243 1431.75 151.077 1428.29 153.384C1424.84 155.623 1421 156.743 1416.77 156.743C1409.99 156.743 1404.1 154.606 1399.11 150.331C1394.11 146.056 1390.25 139.949 1387.52 132.01C1384.79 124.071 1383.43 114.606 1383.43 103.613C1383.43 95.4707 1384.43 87.9389 1386.43 81.0178C1388.44 74.0288 1391.21 67.9559 1394.75 62.799C1398.34 57.6421 1402.46 53.6387 1407.11 50.7888C1411.8 47.8711 1416.79 46.4122 1422.08 46.4122Z" fill="white"/>
<path d="M1487.39 120C1487.39 124.207 1488.18 127.328 1489.76 129.364C1491.38 131.4 1493.99 132.417 1497.57 132.417C1499.58 132.417 1501.71 132.214 1503.97 131.807C1506.23 131.399 1508.9 130.619 1511.97 129.466V134.962C1507.19 140.729 1503.03 145.208 1499.49 148.397C1495.99 151.518 1492.79 153.69 1489.89 154.911C1486.99 156.132 1484.09 156.743 1481.19 156.743C1476.53 156.743 1472.59 155.522 1469.34 153.079C1466.14 150.568 1463.69 146.802 1461.98 141.781C1460.32 136.76 1459.49 130.45 1459.49 122.85V72.8753L1448.61 57.9135V54.8601C1449.12 54.3851 1450.36 53.3333 1452.32 51.7048C1454.28 50.0763 1456.67 48.0746 1459.49 45.6997C1462.3 43.257 1465.29 40.7125 1468.45 38.0662C1471.61 35.352 1474.7 32.7057 1477.73 30.1272C1480.8 27.4809 1483.51 25.1739 1485.86 23.2061H1487.39V120ZM1476.32 67.888V49.4657H1509.41L1507.94 67.888H1476.32Z" fill="white"/>
<path d="M1532.96 39.4911C1529.07 39.4911 1526 37.5912 1523.74 33.7913C1521.48 29.9237 1520.35 25.3774 1520.35 20.1527C1520.35 15.1315 1521.48 10.8567 1523.74 7.32825C1526 3.79983 1529.07 2.03562 1532.96 2.03562C1536.88 2.03562 1539.93 3.79983 1542.11 7.32825C1544.33 10.8567 1545.44 15.1315 1545.44 20.1527C1545.44 25.3774 1544.33 29.9237 1542.11 33.7913C1539.93 37.5912 1536.88 39.4911 1532.96 39.4911ZM1547.55 46.4122V147.074L1552.35 150.331V153.69H1514.01V150.331L1519.52 146.768V78.5751C1519.05 77.6251 1518.49 76.5394 1517.85 75.3181C1517.26 74.0288 1516.51 72.4682 1515.61 70.6361C1514.76 68.7362 1513.67 66.4631 1512.35 63.8168V60.458L1545.82 46.4122H1547.55Z" fill="white"/>
<path d="M1593.97 148.702C1595.89 148.702 1597.34 147.311 1598.32 144.529C1599.35 141.747 1600.03 137.201 1600.37 130.891C1600.71 124.58 1600.89 116.2 1600.89 105.751C1600.89 94.3511 1600.74 84.8855 1600.44 77.3537C1600.14 69.754 1599.46 64.0543 1598.39 60.2545C1597.36 56.4546 1595.76 54.5547 1593.59 54.5547C1591.67 54.5547 1590.22 55.9457 1589.24 58.7277C1588.26 61.5098 1587.57 66.056 1587.19 72.3664C1586.85 78.609 1586.68 86.9551 1586.68 97.4046C1586.68 108.804 1586.83 118.304 1587.12 125.903C1587.42 133.503 1588.08 139.203 1589.11 143.003C1590.18 146.802 1591.8 148.702 1593.97 148.702ZM1592.82 156.743C1585.74 156.743 1579.57 154.436 1574.32 149.822C1569.12 145.208 1565.06 138.83 1562.16 130.687C1559.3 122.477 1557.87 112.977 1557.87 102.188C1557.87 91.1281 1559.45 81.4249 1562.61 73.0789C1565.77 64.7328 1570.12 58.2188 1575.67 53.5369C1581.26 48.7871 1587.61 46.4122 1594.74 46.4122C1601.95 46.4122 1608.16 48.7193 1613.37 53.3333C1618.61 57.8796 1622.65 64.2579 1625.46 72.4682C1628.32 80.6785 1629.75 90.1781 1629.75 100.967C1629.75 112.027 1628.13 121.764 1624.89 130.178C1621.69 138.524 1617.31 145.038 1611.77 149.72C1606.22 154.402 1599.9 156.743 1592.82 156.743Z" fill="white"/>
<path d="M1669.74 147.074L1674.54 150.331V153.69H1636.21V150.331L1641.71 146.768V78.5751C1640.98 77.0144 1639.94 74.8431 1638.57 72.0611C1637.25 69.2791 1635.91 66.531 1634.54 63.8168V60.458L1668.01 46.4122H1669.74V147.074ZM1679.34 150.331L1684.14 147.074V86.7176C1684.14 83.4606 1683.87 80.95 1683.31 79.1858C1682.8 77.3537 1682.01 76.0645 1680.94 75.3181C1679.88 74.5717 1678.51 74.1985 1676.85 74.1985C1675.44 74.1985 1673.97 74.5038 1672.43 75.1145C1670.94 75.7252 1669.1 76.8448 1666.93 78.4733V76.743C1670.21 70.0933 1673.01 64.8346 1675.31 60.9669C1677.62 57.0314 1679.71 54.1137 1681.58 52.2137C1683.46 50.246 1685.38 48.9567 1687.34 48.3461C1689.31 47.7354 1691.57 47.43 1694.13 47.43C1699.85 47.43 1704.28 50.0085 1707.44 55.1654C1710.6 60.3223 1712.18 67.4809 1712.18 76.6412V146.768L1717.62 150.331V153.69H1679.34V150.331Z" fill="white"/>
<path d="M1752.59 46.4122C1756.56 46.4122 1759.99 46.8193 1762.9 47.6336C1765.8 48.38 1768.74 49.5335 1771.73 51.0942L1774.74 79.7964H1772.69L1760.98 52.2137L1767.25 60.9669C1764.86 57.9813 1762.53 55.8779 1760.27 54.6565C1758.05 53.3673 1755.83 52.7227 1753.61 52.7227C1749.86 52.7227 1747.06 53.6387 1745.23 55.4707C1743.4 57.3028 1742.48 60.1527 1742.48 64.0204C1742.48 66.2595 1742.86 68.2612 1743.63 70.0255C1744.44 71.7897 1746.02 73.5199 1748.37 75.2163C1750.71 76.8448 1754.28 78.6768 1759.06 80.7125C1762.6 82.2053 1765.6 84.1052 1768.08 86.4122C1770.55 88.6514 1772.54 91.2977 1774.03 94.3512C1775.57 97.4046 1776.68 100.831 1777.36 104.631C1778.09 108.363 1778.45 112.502 1778.45 117.048C1778.45 124.784 1777.13 131.637 1774.48 137.608C1771.83 143.579 1768.12 148.261 1763.34 151.654C1758.56 155.047 1752.93 156.743 1746.45 156.743C1741.62 156.743 1737.57 156.234 1734.29 155.216C1731 154.198 1728.31 152.909 1726.22 151.349L1722.83 118.372H1725.26L1738.25 150.941L1733.97 144.835C1735.2 146.124 1736.53 147.21 1737.93 148.092C1739.34 148.906 1740.79 149.517 1742.29 149.924C1743.82 150.331 1745.32 150.534 1746.77 150.534C1750.56 150.534 1753.57 149.211 1755.79 146.565C1758.05 143.919 1759.18 139.847 1759.18 134.351C1759.18 132.18 1758.91 130.246 1758.35 128.55C1757.84 126.785 1756.96 125.157 1755.73 123.664C1754.49 122.171 1752.8 120.746 1750.67 119.389C1748.58 118.032 1745.93 116.709 1742.73 115.42C1738.51 113.723 1734.97 111.552 1732.11 108.906C1729.25 106.192 1727.1 102.833 1725.65 98.8295C1724.24 94.8261 1723.53 90.0424 1723.53 84.4784C1723.53 76.9466 1724.75 70.3308 1727.18 64.631C1729.61 58.9313 1733.01 54.4869 1737.36 51.2977C1741.75 48.0407 1746.83 46.4122 1752.59 46.4122Z" fill="white"/>
<path d="M1799.18 113.384C1803.23 113.384 1806.54 115.454 1809.1 119.593C1811.7 123.664 1813 128.719 1813 134.758C1813 140.797 1811.7 145.886 1809.1 150.025C1806.54 154.097 1803.23 156.132 1799.18 156.132C1795.12 156.132 1791.79 154.097 1789.19 150.025C1786.63 145.886 1785.35 140.797 1785.35 134.758C1785.35 128.719 1786.65 123.664 1789.25 119.593C1791.86 115.454 1795.16 113.384 1799.18 113.384Z" fill="white"/>
</svg>
